# xmcd
#
# Track frame offsets: 
#        150
#        13306
#        37283
#        53598
#
# Disc length: 980 seconds
#
# Revision: 0
# Processed by: cddbd v1.5.1PL0 Copyright (c) Steve Scherf et al.
# Submitted via: ExactAudioCopy v0.95a5
#
DISCID=3103d204
DTITLE=Poverty Neck Hillbillies - Poverty Neck Hillbillies
DYEAR=1900
DGENRE=Country
TTITLE0=This Love In My Heart
TTITLE1=Fly
TTITLE2=Coming To See You
TTITLE3=Crazy Things
EXTD=
EXTT0=
EXTT1=
EXTT2=
EXTT3=
PLAYORDER=
